<?xml version="1.0" encoding="UTF-8"?>
<!-- Created with Inkscape (http://www.inkscape.org/) -->
<svg width="1002.6" height="588.43" version="1.1" viewBox="0 0 1002.6 588.43" xmlns="http://www.w3.org/2000/svg">
 <defs>
  <clipPath id="clipPath6286">
   <path d="M 0,595.276 H 841.89 V 0 H 0 Z"/>
  </clipPath>
 </defs>
 <g transform="matrix(1.3333 0 0 -1.3333 -58.706 682.8)">
  <g>
   <g clip-path="url(#clipPath6286)">
    <g transform="translate(316.6 512.1)">
     <path d="m0 0h-45.118l-21.194-128.59-9.362 104.27c-1.783 12.389-11.34 22.327-23.339 24.318h-105.9l-67.274-408.3c-2.88-17.285 10.447-33.019 27.967-33.019h44.963l20.966 127.61 9.139-103.91c2.278-13.673 14.107-23.695 27.967-23.695h102.15l66.995 408.3c2.88 17.285-10.447 33.02-27.967 33.02" fill="#ffdd21"/>
    </g>
    <g transform="translate(257.64 322.1)">
     <path d="m0 0c-0.516 1.695 0 1.621-1.253 9.358-1.252 7.736-4.936 9.431-6.41 12.82-1.474 3.39-0.295 6.705-2.505 10.537-2.211 3.831-5.01 5.6-10.168 5.673-5.158 0.074-13.116 2.8-13.189 3.242-0.074 0.442-0.811 2.8-0.295 5.305 0.516 2.506 4.65 3.269 5.6 4.053 0.935 0.772 1.105 7.958 1.031 9.579-0.073 1.621-1.179 3.831-1.179 3.831s1.158 0.857 1.308 1.682c0.213 1.169-4.255 3.771-4.255 3.771-0.737 8.326-6.953 9.607-9.974 9.681s-9.036-0.397-14.267-4.45c-5.232-4.052-4.731-13.847-2.211-17.684 1.813-2.76 2.727-7.442 2.358-7.663-0.368-0.221-4.642 4.274-4.642 4.274-4.789 5.158-5.747 3.168-10.242 6.926-4.494 3.758-1.326 2.8-6.336 10.242-5.011 7.442-10.463 10.094-11.937 12.157-1.473 2.063-18.199 33.599-18.199 33.599s0.958 1.032 1.252 2.579c0.024 0.125 0.057 0.246 0.093 0.366 3.703-3.241 8.549-5.21 13.858-5.21 11.63 0 21.058 9.428 21.058 21.059 0 11.63-9.428 21.058-21.058 21.058-7.954 0-14.876-4.411-18.459-10.919 0.1 0.426-1.118 1.23-1.332 0.565-0.439-1.363-1.405-5.093-1.823-6.73-0.957-3.758-1.473-5.673-1.621-8.842-0.147-3.168 0.221-12.231 0.221-13.705 0-1.473 2.432-12.378 4.2-20.041 1.769-7.663 2.8-9.726 6.263-14 3.463-4.273 6.042-9.21 8.105-13.926 2.063-4.715 9.358-16.873 11.642-20.999s6.484-9.947 7.663-12.968 1.026-4.678-0.958-8.989c-1.842-4.004-0.724-3.765 0.811-6.337 0.913-1.53 1.473-6.558 1.179-12.231-0.295-5.674-4.2-22.841-7.516-27.631-0.042-0.061-0.081-0.119-0.121-0.179-0.714-0.89-1.273-1.895-1.576-2.921-0.572-1.559-0.332-2.392-0.119-2.765 0.033-0.134 0.424-1.095 0.471-1.227-0.291-0.6-1.129-2.578-2.887-10.556-2.063-9.357-2.777-23.836-2.841-25.161-0.092-1.861 0.044-4.027 1.473-5.895 0.885-1.156 2.579-2.947 2.579-2.947-3.537-1.4-4.421-4.273-4.789-8.179-0.369-3.905-4.053-15.252-4.053-15.252-2.67-0.133-4.421-6.115-5.231-12.01-0.811-5.895-3.611-15.842-3.463-20.189 0.147-4.347 2.988-8.231 5.747-9.505 2.187-1.01 6.473-1.28 8.411-1e-3 1.604 1.059 3.452 3.98 3.746 7.001 0.295 3.021-0.884 5.747-0.957 8.252-0.074 2.506 3.757 20.263 5.01 23.8 1.253 3.536 8.105 8.915 10.315 10.536 2.211 1.621 5.748 7.884 5.748 7.884 0.442-4.863-0.59-12.157 0.368-14.589 0.958-2.431 4.789-9.284 5.305-10.684s4.495-12.82-0.442-24.904-1.4-13.41-1.474-20.41c-0.073-7-4.273-26.673-4.273-26.673-1.99 0.516-7.295-6.337-7.295-6.337-4.642-0.737-5.143-3.382-4.568-5.821 1.038-4.395 4.421-8.62 6.263-10.094s3.021-2.284 2.505-4.789c-0.516-2.506-1.694-5.011 0.59-9.358s10.831-5.526 13.41-4.863 1.916 4.642 1.473 7.663c-0.442 3.021-2.431 19.599-2.431 20.336s2.284 5.968 2.358 6.926c0.073 0.958-0.884 1.842-0.884 1.842 0.147 1.4 10.168 28.736 11.789 36.399s4.052 22.031 4.273 25.642c0.221 3.61 1.695 9.21 1.695 9.21s3.61-1.179 3.979-0.884c0.368 0.294 0.221 2.505 1.252 6.115 1.032 3.611 4.734 19.139 4.569 23.118-0.166 3.979 0.994 9.947 0 14.921-0.995 4.973-0.636 8.537-0.636 9.505 0 0.967-0.718 5.222-0.718 8.344s-1.373 6.668-1.373 6.668c2.948 0.221 4.053 1.621 4.053 2.137s0.074 1.4 0.442 4.642 0.884 6.042 0.368 12.821c-0.515 6.778 2.064 15.399 2.064 15.399s7.441-1.031 10.094-0.442c2.653 0.59 7.737 3.537 8.989 4.347 1.253 0.811 4.495 1.4 3.979 3.095" fill="#0f7a49"/>
    </g>
    <g transform="translate(391.96 512.06)">
     <path d="m0 0h101.45c58.954-0.142 83.199-31.957 72.746-95.43l-10.704-65.007c-4.936-29.973-18.069-50.033-39.392-60.172 17.985-10.13 24.512-30.187 19.576-60.161l-10.743-65.242c-10.427-63.321-46.383-95.052-107.89-95.208h-97.705zm61.697-70.302-18.944-115.04h14.093c7.914 0 13.118 0.437 15.619 1.321 9.848 3.669 15.759 11.532 17.744 23.584l10.704 65.007c2.76 16.755-3.044 25.128-17.421 25.128zm-30.557-185.56-18.945-115.05h21.795c14.376 0 22.926 8.303 25.66 24.906l10.743 65.242c1.983 12.039-1.35 19.832-10.013 23.359-2.325 1.027-7.375 1.544-15.147 1.544z" fill="#ffdd21"/>
    </g>
    <g transform="translate(619.4 512.06)">
     <path d="m0 0h101.45c58.955-0.142 83.209-31.957 72.757-95.43l-10.704-65.007c-4.936-29.973-18.071-50.033-39.401-60.172 17.993-10.13 24.522-30.187 19.587-60.161l-10.743-65.242c-10.427-63.321-46.392-95.052-107.88-95.208h-97.713zm61.705-70.302-18.943-115.04h14.084c7.924 0 13.129 0.437 15.618 1.321 9.848 3.669 15.77 11.532 17.754 23.584l10.704 65.007c2.759 16.755-3.058 25.128-17.434 25.128zm-30.556-185.56-18.944-115.05h21.783c14.376 0 22.939 8.303 25.673 24.906l10.743 65.242c1.982 12.039-1.362 19.832-10.024 23.359-2.328 1.027-7.375 1.544-15.146 1.544z" fill="#ffdd21"/>
    </g>
   </g>
  </g>
 </g>
</svg>
